<svg xmlns="http://www.w3.org/2000/svg" xmlns:xlink="http://www.w3.org/1999/xlink" width="141.687" height="232.5" viewBox="0 0 141.687 232.5">
  <defs>
    <clipPath id="clip-path">
      <path d="M-623.029,202.149l-.158.081-.01,0v1.215h0s.125-.046.185-.066c17.377-5.748,33.9-8.754,50.5-8.775,16.606.021,33.126,3.027,50.5,8.775l.185.066s0-.847,0-1.215l-.01,0-.158-.081c-17.369-5.709-33.9-8.7-50.521-8.722C-589.129,193.449-605.66,196.439-623.029,202.149Z" transform="translate(623.197 -193.427)" fill="none"/>
    </clipPath>
    <linearGradient id="linear-gradient" x1="16.513" y1="2.292" x2="16.548" y2="2.292" gradientUnits="objectBoundingBox">
      <stop offset="0" stop-color="#ac8e45"/>
      <stop offset="0.27" stop-color="#bf9e4e"/>
      <stop offset="0.496" stop-color="#e5d17d"/>
      <stop offset="0.714" stop-color="#bf9e4e"/>
      <stop offset="0.995" stop-color="#ac8e45"/>
      <stop offset="1" stop-color="#ac8e45"/>
    </linearGradient>
    <clipPath id="clip-path-2">
      <path d="M-615.4,198.519c-5.478,1.426-11.01,3.1-16.626,4.958l-3.441,1.137V261.39a84.95,84.95,0,0,0,15.138,48.593,80.248,80.248,0,0,0,26.727,23.989,78.593,78.593,0,0,1-36.868-66.636v-62.1l.01,0a108.782,108.782,0,0,1,15.059-6.46c.325-.132.294-.189.294-.215s-.007-.067-.11-.067A.722.722,0,0,0-615.4,198.519Zm70.945.037c0,.025-.03.083.3.215a108.8,108.8,0,0,1,15.059,6.46l.01,0c0,13.821,0,62.1,0,62.1a78.592,78.592,0,0,1-36.867,66.636,80.241,80.241,0,0,0,26.727-23.989A84.946,84.946,0,0,0-524.1,261.39V204.614l-3.441-1.137c-5.616-1.858-11.147-3.532-16.625-4.958a.731.731,0,0,0-.184-.03C-544.452,198.489-544.459,198.537-544.459,198.556Z" transform="translate(635.471 -198.489)" fill="none"/>
    </clipPath>
    <linearGradient id="linear-gradient-2" x1="1.837" y1="1.53" x2="1.84" y2="1.53" xlink:href="#linear-gradient"/>
  </defs>
  <g transform="translate(-8.879 -2.5)">
    <path d="M-563.3,588.9a11.183,11.183,0,0,0-11.157-10.342,11.187,11.187,0,0,0-11.185,11.188,11.188,11.188,0,0,0,11.185,11.184c.339,0,.67-.014.99-.041-.017-.283-.031-.562-.031-.851,0-.346.019-.691.046-1.036a8.453,8.453,0,0,1-1,.06,9.319,9.319,0,0,1-9.316-9.315,9.319,9.319,0,0,1,9.316-9.319,9.313,9.313,0,0,1,9.3,8.795c.007.173.026.344.026.524a9.288,9.288,0,0,1-.127,1.461,9.321,9.321,0,0,1-6.24,7.37,9.112,9.112,0,0,0-.128,1.461c0,.181.018.353.028.524a11.187,11.187,0,0,0,8.286-9.785c.033-.338.053-.684.053-1.03,0-.287-.011-.568-.038-.846" transform="translate(629.943 -419.233)" fill="#0081c8"/>
    <path d="M-529.808,605.71a9.3,9.3,0,0,1,.944.048,9.28,9.28,0,0,1,1.94.412,9.313,9.313,0,0,1,6.317,7.448,9.271,9.271,0,0,0,1.943.411,11.2,11.2,0,0,0-8.351-9.837,11.243,11.243,0,0,0-1.861-.31c-.306-.024-.617-.042-.932-.042-.334,0-.66.018-.989.045.023.281.039.56.039.848a10.28,10.28,0,0,1-.054,1.03c.333-.033.667-.053,1-.053" transform="translate(597.439 -434.221)" fill="#fcb131"/>
    <path d="M-535.344,616.133a9.31,9.31,0,0,1-9.29,8.749,9.313,9.313,0,0,1-9.29-8.8c-.01-.171-.028-.343-.028-.523a9.29,9.29,0,0,1,.128-1.461,9.314,9.314,0,0,1,6.24-7.371,9.261,9.261,0,0,0,.128-1.46c0-.18-.015-.351-.026-.524a11.2,11.2,0,0,0-8.292,9.779c-.027.346-.046.691-.046,1.037,0,.288.017.568.032.851a11.194,11.194,0,0,0,11.155,10.344,11.19,11.19,0,0,0,11.151-10.313,11.5,11.5,0,0,1-1.861-.309" transform="translate(612.265 -434.758)" fill="#fcb131"/>
    <path d="M-514.888,616.869a8.581,8.581,0,0,1-.939-.049,9.3,9.3,0,0,1-1.943-.411,9.321,9.321,0,0,1-6.317-7.448,9.269,9.269,0,0,0-1.94-.412,11.191,11.191,0,0,0,8.346,9.84,11.554,11.554,0,0,0,1.861.309c.311.027.619.039.932.039.342,0,.677-.016,1.009-.043-.024-.3-.04-.6-.04-.905,0-.333.016-.655.045-.978a9.139,9.139,0,0,1-1.014.058" transform="translate(594.602 -437.013)" fill="#000"/>
    <path d="M-665.671,740.193a5.915,5.915,0,0,1-.213,1.683,3.6,3.6,0,0,1-.6,1.214,2.688,2.688,0,0,1-.929.764,3.6,3.6,0,0,1-1.187.348v.551a1.922,1.922,0,0,0,.033.393.4.4,0,0,0,.122.225.5.5,0,0,0,.244.1,2.489,2.489,0,0,0,.4.025h.758a.366.366,0,0,1,.2.052.168.168,0,0,1,.084.154v.437q0,.167-.276.237a3.2,3.2,0,0,1-.764.07,4.316,4.316,0,0,1-.834-.07,1.383,1.383,0,0,1-.6-.263,1.165,1.165,0,0,1-.367-.52,2.4,2.4,0,0,1-.122-.828v-.578a3.411,3.411,0,0,1-1.175-.353,2.816,2.816,0,0,1-.919-.764,3.561,3.561,0,0,1-.6-1.2,5.9,5.9,0,0,1-.212-1.676v-1.656a5.623,5.623,0,0,1,.264-1.831,3.408,3.408,0,0,1,.727-1.252,2.826,2.826,0,0,1,1.1-.72,4.072,4.072,0,0,1,1.4-.231,4.07,4.07,0,0,1,1.4.231,2.812,2.812,0,0,1,1.1.72,3.334,3.334,0,0,1,.721,1.252,5.761,5.761,0,0,1,.258,1.831Zm-1.195-1.656a5.084,5.084,0,0,0-.16-1.374,2.506,2.506,0,0,0-.455-.925,1.683,1.683,0,0,0-.717-.52,2.645,2.645,0,0,0-.948-.161,2.658,2.658,0,0,0-.948.161,1.736,1.736,0,0,0-.723.52,2.473,2.473,0,0,0-.461.925,5.1,5.1,0,0,0-.16,1.374v1.656a5.094,5.094,0,0,0,.16,1.375,2.552,2.552,0,0,0,.455.926,1.686,1.686,0,0,0,.723.519,2.7,2.7,0,0,0,.954.16,2.643,2.643,0,0,0,.948-.16,1.685,1.685,0,0,0,.717-.519,2.517,2.517,0,0,0,.455-.926,5.08,5.08,0,0,0,.16-1.375Z" transform="translate(681.512 -511.68)" fill="#000"/>
    <path d="M-646.985,747.49a.248.248,0,0,1-.077.179.246.246,0,0,1-.18.077h-.59a.243.243,0,0,1-.18-.077.246.246,0,0,1-.077-.179v-.283a6.142,6.142,0,0,1-.95.45,2.959,2.959,0,0,1-1.028.179,3.213,3.213,0,0,1-.79-.1,1.669,1.669,0,0,1-.668-.34,1.707,1.707,0,0,1-.461-.642,2.512,2.512,0,0,1-.175-1V745.6A2.384,2.384,0,0,1-652,744.7a1.494,1.494,0,0,1,.527-.655,2.563,2.563,0,0,1,.957-.392,7.022,7.022,0,0,1,1.451-.128h.95v-.514a1.628,1.628,0,0,0-.308-1.131,1.443,1.443,0,0,0-1.065-.32q-.631,0-1.1.031c-.316.021-.6.045-.861.07h-.064a.334.334,0,0,1-.161-.038.176.176,0,0,1-.07-.166V741q0-.205.27-.244.4-.064.866-.115a10.479,10.479,0,0,1,1.124-.052,2.492,2.492,0,0,1,1.92.642,2.542,2.542,0,0,1,.584,1.773Zm-1.131-3.16h-.95a5.388,5.388,0,0,0-.964.071,1.583,1.583,0,0,0-.6.218.79.79,0,0,0-.308.385,1.638,1.638,0,0,0-.09.585v.154a1.126,1.126,0,0,0,.308.93,1.4,1.4,0,0,0,.873.239,2.848,2.848,0,0,0,.859-.129,4.668,4.668,0,0,0,.874-.385Z" transform="translate(669.377 -515.289)" fill="#000"/>
    <path d="M-632.97,745.325q0,.183-.231.222c-.129.018-.27.032-.424.045s-.291.019-.411.019a3.714,3.714,0,0,1-.777-.071,1.143,1.143,0,0,1-.54-.263,1.209,1.209,0,0,1-.321-.526,2.834,2.834,0,0,1-.109-.861v-4.483l-1.246-.141c-.162-.016-.245-.094-.245-.231v-.347c0-.154.083-.231.245-.231h1.246V737.2a.242.242,0,0,1,.231-.258l.668-.1h.038a.183.183,0,0,1,.135.058.215.215,0,0,1,.058.161v1.4h1.388a.243.243,0,0,1,.179.077.244.244,0,0,1,.077.18v.436a.246.246,0,0,1-.077.181.245.245,0,0,1-.179.076h-1.388v4.472a.96.96,0,0,0,.154.666.794.794,0,0,0,.539.141h.72c.18,0,.27.061.27.184Z" transform="translate(660.55 -513.064)" fill="#000"/>
    <path d="M-619.227,747.49a.25.25,0,0,1-.077.179.248.248,0,0,1-.18.077h-.59a.243.243,0,0,1-.18-.077.246.246,0,0,1-.077-.179v-.283a6.13,6.13,0,0,1-.95.45,2.959,2.959,0,0,1-1.028.179,3.212,3.212,0,0,1-.791-.1,1.663,1.663,0,0,1-.667-.34,1.7,1.7,0,0,1-.462-.642,2.511,2.511,0,0,1-.175-1V745.6a2.38,2.38,0,0,1,.161-.905,1.492,1.492,0,0,1,.527-.655,2.565,2.565,0,0,1,.957-.392,7.022,7.022,0,0,1,1.451-.128h.95v-.514a1.628,1.628,0,0,0-.308-1.131,1.444,1.444,0,0,0-1.066-.32q-.63,0-1.1.031c-.316.021-.6.045-.86.07h-.064a.327.327,0,0,1-.161-.038.175.175,0,0,1-.071-.166V741q0-.205.27-.244.4-.064.866-.115a10.481,10.481,0,0,1,1.124-.052,2.491,2.491,0,0,1,1.92.642,2.541,2.541,0,0,1,.584,1.773Zm-1.131-3.16h-.95a5.385,5.385,0,0,0-.964.071,1.588,1.588,0,0,0-.6.218.79.79,0,0,0-.308.385,1.64,1.64,0,0,0-.09.585v.154a1.127,1.127,0,0,0,.308.93,1.4,1.4,0,0,0,.873.239,2.858,2.858,0,0,0,.86-.129,4.68,4.68,0,0,0,.873-.385Z" transform="translate(652.921 -515.289)" fill="#000"/>
    <path d="M-604.23,741.361c0,.148-.09.221-.27.221a3.093,3.093,0,0,0-.867.121,3.911,3.911,0,0,0-.907.417v5.371a.245.245,0,0,1-.077.179.245.245,0,0,1-.18.077h-.629a.222.222,0,0,1-.173-.077.256.256,0,0,1-.071-.179V740.94a.256.256,0,0,1,.071-.18.222.222,0,0,1,.173-.077h.6a.225.225,0,0,1,.174.078.264.264,0,0,1,.07.183v.273a3.6,3.6,0,0,1,.93-.481,2.858,2.858,0,0,1,.881-.143q.27,0,.27.234Z" transform="translate(642.842 -515.29)" fill="#000"/>
    <path d="M-582.115,740.193a5.752,5.752,0,0,1-.258,1.831,3.313,3.313,0,0,1-.721,1.252,2.8,2.8,0,0,1-1.1.719,4.053,4.053,0,0,1-1.4.232,4.056,4.056,0,0,1-1.4-.232,2.82,2.82,0,0,1-1.1-.719,3.4,3.4,0,0,1-.727-1.252,5.616,5.616,0,0,1-.264-1.831v-1.656a5.625,5.625,0,0,1,.264-1.831,3.41,3.41,0,0,1,.727-1.252,2.827,2.827,0,0,1,1.1-.72,4.072,4.072,0,0,1,1.4-.231,4.069,4.069,0,0,1,1.4.231,2.811,2.811,0,0,1,1.1.72,3.327,3.327,0,0,1,.721,1.252,5.761,5.761,0,0,1,.258,1.831Zm-1.194-1.656a5.086,5.086,0,0,0-.161-1.374,2.511,2.511,0,0,0-.455-.925,1.685,1.685,0,0,0-.717-.52,2.645,2.645,0,0,0-.948-.161,2.657,2.657,0,0,0-.948.161,1.735,1.735,0,0,0-.723.52,2.472,2.472,0,0,0-.461.925,5.108,5.108,0,0,0-.16,1.374v1.656a5.1,5.1,0,0,0,.16,1.375,2.554,2.554,0,0,0,.455.926,1.687,1.687,0,0,0,.723.519,2.706,2.706,0,0,0,.955.16,2.642,2.642,0,0,0,.948-.16,1.687,1.687,0,0,0,.717-.519,2.522,2.522,0,0,0,.455-.926,5.082,5.082,0,0,0,.161-1.375Z" transform="translate(631.979 -511.68)" fill="#000"/>
    <path d="M-566.529,743.844a.273.273,0,0,1-.064.18.207.207,0,0,1-.167.077h-.668a.206.206,0,0,1-.167-.077.267.267,0,0,1-.064-.18v-9.158a.243.243,0,0,1,.064-.173.215.215,0,0,1,.167-.07h.668a.217.217,0,0,1,.167.07.248.248,0,0,1,.064.173Z" transform="translate(619.282 -511.643)" fill="#000"/>
    <path d="M-555.336,741.032a.223.223,0,0,1-.012.089l-2.12,7.4a5.736,5.736,0,0,1-.328.886,1.716,1.716,0,0,1-.443.584,1.7,1.7,0,0,1-.648.327,3.62,3.62,0,0,1-.932.1,5.478,5.478,0,0,1-.571-.032,3.818,3.818,0,0,1-.507-.084.853.853,0,0,1-.193-.064.144.144,0,0,1-.077-.141v-.475c0-.137.082-.205.244-.205h.039c.146.016.337.034.572.052s.425.025.572.025a2.247,2.247,0,0,0,.474-.045.836.836,0,0,0,.354-.167,1.046,1.046,0,0,0,.257-.334,2.371,2.371,0,0,0,.186-.545l.129-.527h-.181a1.544,1.544,0,0,1-.276-.025.625.625,0,0,1-.257-.116.842.842,0,0,1-.224-.27,2.234,2.234,0,0,1-.193-.475l-1.708-5.87a.211.211,0,0,1-.013-.089c0-.146.077-.219.231-.219h.707a.175.175,0,0,1,.134.064.4.4,0,0,1,.084.141l1.515,5.575a.447.447,0,0,0,.116.237.221.221,0,0,0,.128.044h.206l1.567-5.869a.3.3,0,0,1,.09-.135.22.22,0,0,1,.154-.058h.719q.2,0,.2.219" transform="translate(615.449 -515.42)" fill="#000"/>
    <path d="M-534.932,747.473a.245.245,0,0,1-.077.18.244.244,0,0,1-.179.076h-.618a.248.248,0,0,1-.179-.076.246.246,0,0,1-.077-.18v-4.547a2.125,2.125,0,0,0-.09-.668,1.064,1.064,0,0,0-.244-.424.869.869,0,0,0-.373-.218,1.619,1.619,0,0,0-.463-.065,2.91,2.91,0,0,0-.738.1,7.507,7.507,0,0,0-.764.245,3.854,3.854,0,0,1,.115,1v4.573a.273.273,0,0,1-.064.18.208.208,0,0,1-.167.076h-.68a.188.188,0,0,1-.16-.076.289.289,0,0,1-.058-.18V742.9a3.289,3.289,0,0,0-.058-.687.919.919,0,0,0-.186-.411.636.636,0,0,0-.316-.2,1.637,1.637,0,0,0-.429-.052,2.2,2.2,0,0,0-.752.148,7.824,7.824,0,0,0-.816.354v5.42a.272.272,0,0,1-.064.18.207.207,0,0,1-.167.076h-.68a.188.188,0,0,1-.161-.076.29.29,0,0,1-.057-.18v-6.551a.257.257,0,0,1,.071-.18.223.223,0,0,1,.173-.077h.643a.226.226,0,0,1,.173.077.262.262,0,0,1,.07.18v.245a4.717,4.717,0,0,1,.861-.425,2.85,2.85,0,0,1,1.014-.179,2.009,2.009,0,0,1,.726.121,1.409,1.409,0,0,1,.558.4,5.723,5.723,0,0,1,1.085-.392,4.356,4.356,0,0,1,1.047-.134,2.769,2.769,0,0,1,.816.115,1.6,1.6,0,0,1,.662.392,1.881,1.881,0,0,1,.443.732,3.408,3.408,0,0,1,.16,1.124Z" transform="translate(604.922 -515.272)" fill="#000"/>
    <path d="M-512.831,744.689a3.5,3.5,0,0,1-.694,2.332,2.612,2.612,0,0,1-2.106.816q-.3,0-.713-.039t-.79-.1v2.325a.237.237,0,0,1-.07.173.237.237,0,0,1-.173.071h-.655a.216.216,0,0,1-.167-.071.248.248,0,0,1-.064-.173v-8.836a.343.343,0,0,1,.044-.193.378.378,0,0,1,.226-.1,10.491,10.491,0,0,1,1.142-.212,9.37,9.37,0,0,1,1.22-.083,3.165,3.165,0,0,1,1.246.224,2.286,2.286,0,0,1,.873.642,2.707,2.707,0,0,1,.513,1,4.745,4.745,0,0,1,.168,1.3Zm-1.131-.924a4.606,4.606,0,0,0-.083-.911,1.947,1.947,0,0,0-.276-.7,1.31,1.31,0,0,0-.514-.45,1.772,1.772,0,0,0-.8-.159c-.275,0-.549.013-.823.037s-.5.056-.68.09v5.087a6.384,6.384,0,0,0,.758.1q.436.032.745.032a1.889,1.889,0,0,0,.8-.148,1.222,1.222,0,0,0,.514-.43,1.88,1.88,0,0,0,.276-.693,4.685,4.685,0,0,0,.083-.925Z" transform="translate(590.001 -515.29)" fill="#000"/>
    <path d="M-499.717,735.537a.244.244,0,0,1-.077.18.245.245,0,0,1-.179.077h-.655a.245.245,0,0,1-.18-.077.245.245,0,0,1-.077-.18V734.51a.245.245,0,0,1,.077-.18.246.246,0,0,1,.18-.077h.655a.246.246,0,0,1,.179.077.245.245,0,0,1,.077.18Zm-.025,8.195a.246.246,0,0,1-.078.18.244.244,0,0,1-.179.076h-.617a.246.246,0,0,1-.179-.076.246.246,0,0,1-.077-.18v-6.551a.247.247,0,0,1,.077-.18.245.245,0,0,1,.179-.077H-500a.243.243,0,0,1,.179.077.246.246,0,0,1,.078.18Z" transform="translate(579.698 -511.531)" fill="#000"/>
    <path d="M-489.379,747.413a.307.307,0,0,1-.052.193.324.324,0,0,1-.2.089,7.054,7.054,0,0,1-.739.1q-.418.039-.867.039a2.84,2.84,0,0,1-1.163-.225,2.44,2.44,0,0,1-.861-.629A2.692,2.692,0,0,1-493.8,746a4.294,4.294,0,0,1-.179-1.284v-1a4.3,4.3,0,0,1,.179-1.283,2.738,2.738,0,0,1,.527-.983,2.366,2.366,0,0,1,.861-.63,2.883,2.883,0,0,1,1.169-.224q.449,0,.867.038a7.349,7.349,0,0,1,.739.1.345.345,0,0,1,.2.083.3.3,0,0,1,.052.2v.462a.168.168,0,0,1-.064.148.262.262,0,0,1-.154.044h-.05c-.283-.034-.54-.057-.77-.07s-.506-.02-.823-.02a1.436,1.436,0,0,0-1.188.52,2.551,2.551,0,0,0-.418,1.612v1a2.584,2.584,0,0,0,.412,1.612,1.432,1.432,0,0,0,1.194.52q.475,0,.823-.019c.23-.013.488-.036.77-.07h.05a.265.265,0,0,1,.154.044.167.167,0,0,1,.064.148Z" transform="translate(575.603 -515.29)" fill="#000"/>
    <path d="M-465.836,743.8a.2.2,0,0,1-.077.174.5.5,0,0,1-.18.084c-.136.025-.274.049-.41.071s-.287.037-.45.051-.347.023-.553.032-.445.013-.718.013a4.17,4.17,0,0,1-1.2-.18,2.722,2.722,0,0,1-1.092-.636,3.354,3.354,0,0,1-.8-1.22,5.217,5.217,0,0,1-.309-1.934v-1.785a5.251,5.251,0,0,1,.309-1.945,3.292,3.292,0,0,1,.8-1.214,2.764,2.764,0,0,1,1.092-.63,4.187,4.187,0,0,1,1.2-.18,9.474,9.474,0,0,1,1.174.071c.373.047.7.093.983.135.136.018.206.073.206.167v.656a.181.181,0,0,1-.026.1c-.017.025-.059.038-.128.038h-.039l-.43-.032q-.25-.02-.539-.039c-.193-.013-.391-.024-.6-.032s-.4-.013-.59-.013a2.553,2.553,0,0,0-.88.148,1.726,1.726,0,0,0-.706.488,2.4,2.4,0,0,0-.475.9,4.7,4.7,0,0,0-.174,1.38v1.785a4.652,4.652,0,0,0,.174,1.369,2.4,2.4,0,0,0,.475.9,1.78,1.78,0,0,0,.706.495,2.462,2.462,0,0,0,.88.154c.18,0,.37,0,.57-.013l.591-.026q.289-.012.533-.032l.423-.032h.052a.182.182,0,0,1,.205.206Z" transform="translate(562.347 -511.68)" fill="#000"/>
    <path d="M-449.34,744.7a4.3,4.3,0,0,1-.18,1.284,2.716,2.716,0,0,1-.539.99,2.4,2.4,0,0,1-.9.635,3.22,3.22,0,0,1-1.246.224,3.166,3.166,0,0,1-1.239-.224,2.416,2.416,0,0,1-.893-.635,2.7,2.7,0,0,1-.539-.99,4.322,4.322,0,0,1-.18-1.284v-.977a4.325,4.325,0,0,1,.18-1.284,2.7,2.7,0,0,1,.539-.989,2.422,2.422,0,0,1,.893-.636,3.166,3.166,0,0,1,1.239-.224,3.22,3.22,0,0,1,1.246.224,2.4,2.4,0,0,1,.9.636,2.72,2.72,0,0,1,.539.989,4.3,4.3,0,0,1,.18,1.284Zm-1.13-.977a2.655,2.655,0,0,0-.411-1.566,1.512,1.512,0,0,0-1.323-.578,1.505,1.505,0,0,0-1.31.572,2.645,2.645,0,0,0-.411,1.573v.977a2.683,2.683,0,0,0,.4,1.567,1.491,1.491,0,0,0,1.316.578,1.519,1.519,0,0,0,1.317-.572,2.617,2.617,0,0,0,.418-1.573Z" transform="translate(552.53 -515.289)" fill="#000"/>
    <path d="M-428.794,747.473a.244.244,0,0,1-.077.18.244.244,0,0,1-.179.076h-.618a.248.248,0,0,1-.18-.076.247.247,0,0,1-.077-.18v-4.547a2.127,2.127,0,0,0-.09-.668,1.065,1.065,0,0,0-.244-.424.871.871,0,0,0-.373-.218,1.618,1.618,0,0,0-.463-.065,2.913,2.913,0,0,0-.738.1,7.572,7.572,0,0,0-.764.245,3.856,3.856,0,0,1,.115,1v4.573a.273.273,0,0,1-.064.18.207.207,0,0,1-.167.076h-.681a.188.188,0,0,1-.161-.076.289.289,0,0,1-.058-.18V742.9a3.3,3.3,0,0,0-.058-.687.924.924,0,0,0-.186-.411.638.638,0,0,0-.316-.2,1.637,1.637,0,0,0-.43-.052,2.2,2.2,0,0,0-.752.148,7.826,7.826,0,0,0-.816.354v5.42a.271.271,0,0,1-.064.18.206.206,0,0,1-.167.076h-.68a.187.187,0,0,1-.16-.076.291.291,0,0,1-.058-.18v-6.551a.258.258,0,0,1,.071-.18.223.223,0,0,1,.173-.077h.643a.225.225,0,0,1,.173.077.261.261,0,0,1,.07.18v.245a4.715,4.715,0,0,1,.862-.425,2.85,2.85,0,0,1,1.014-.179,2.007,2.007,0,0,1,.726.121,1.407,1.407,0,0,1,.558.4,5.73,5.73,0,0,1,1.086-.392,4.356,4.356,0,0,1,1.046-.134,2.769,2.769,0,0,1,.816.115,1.6,1.6,0,0,1,.662.392,1.884,1.884,0,0,1,.443.732,3.413,3.413,0,0,1,.16,1.124Z" transform="translate(542.002 -515.272)" fill="#000"/>
    <path d="M-403.624,747.473a.244.244,0,0,1-.077.18.244.244,0,0,1-.179.076h-.618a.248.248,0,0,1-.18-.076.246.246,0,0,1-.077-.18v-4.547a2.123,2.123,0,0,0-.09-.668,1.063,1.063,0,0,0-.244-.424.869.869,0,0,0-.373-.218,1.618,1.618,0,0,0-.463-.065,2.912,2.912,0,0,0-.738.1,7.584,7.584,0,0,0-.764.245,3.856,3.856,0,0,1,.115,1v4.573a.273.273,0,0,1-.064.18.207.207,0,0,1-.166.076h-.681a.188.188,0,0,1-.16-.076.289.289,0,0,1-.058-.18V742.9a3.3,3.3,0,0,0-.058-.687.923.923,0,0,0-.186-.411.636.636,0,0,0-.315-.2,1.642,1.642,0,0,0-.43-.052,2.2,2.2,0,0,0-.752.148,7.879,7.879,0,0,0-.816.354v5.42a.273.273,0,0,1-.064.18.208.208,0,0,1-.167.076h-.68a.187.187,0,0,1-.16-.076.291.291,0,0,1-.058-.18v-6.551a.257.257,0,0,1,.071-.18.223.223,0,0,1,.173-.077h.643a.225.225,0,0,1,.173.077.262.262,0,0,1,.07.18v.245a4.724,4.724,0,0,1,.862-.425,2.851,2.851,0,0,1,1.014-.179,2.008,2.008,0,0,1,.726.121,1.408,1.408,0,0,1,.558.4,5.726,5.726,0,0,1,1.086-.392,4.356,4.356,0,0,1,1.046-.134,2.769,2.769,0,0,1,.816.115,1.6,1.6,0,0,1,.662.392,1.884,1.884,0,0,1,.443.732,3.411,3.411,0,0,1,.16,1.124Z" transform="translate(527.081 -515.272)" fill="#000"/>
    <path d="M-385.472,735.537a.245.245,0,0,1-.077.18.245.245,0,0,1-.18.077h-.655a.246.246,0,0,1-.18-.077.244.244,0,0,1-.077-.18V734.51a.245.245,0,0,1,.077-.18.247.247,0,0,1,.18-.077h.655a.246.246,0,0,1,.18.077.245.245,0,0,1,.077.18Zm-.026,8.195a.244.244,0,0,1-.077.18.244.244,0,0,1-.179.076h-.618a.245.245,0,0,1-.179-.076.244.244,0,0,1-.077-.18v-6.551a.245.245,0,0,1,.077-.18.244.244,0,0,1,.179-.077h.618a.243.243,0,0,1,.179.077.245.245,0,0,1,.077.18Z" transform="translate(511.973 -511.531)" fill="#000"/>
    <path d="M-376.22,745.325q0,.183-.231.222c-.129.018-.27.032-.424.045s-.291.019-.411.019a3.713,3.713,0,0,1-.777-.071,1.143,1.143,0,0,1-.54-.263,1.21,1.21,0,0,1-.321-.526,2.834,2.834,0,0,1-.109-.861v-4.483l-1.246-.141c-.163-.016-.245-.094-.245-.231v-.347q0-.231.245-.231h1.246V737.2a.241.241,0,0,1,.23-.258l.669-.1h.038a.183.183,0,0,1,.135.058.214.214,0,0,1,.058.161v1.4h1.388a.243.243,0,0,1,.179.077.243.243,0,0,1,.077.18v.436a.246.246,0,0,1-.077.181.245.245,0,0,1-.179.076H-377.9v4.472a.96.96,0,0,0,.154.666.794.794,0,0,0,.539.141h.72c.18,0,.27.061.27.184Z" transform="translate(508.347 -513.064)" fill="#000"/>
    <path d="M-364.076,745.325c0,.122-.077.2-.231.222-.129.018-.27.032-.424.045s-.291.019-.411.019a3.711,3.711,0,0,1-.777-.071,1.143,1.143,0,0,1-.54-.263,1.2,1.2,0,0,1-.321-.526,2.819,2.819,0,0,1-.109-.861v-4.483l-1.246-.141c-.163-.016-.245-.094-.245-.231v-.347q0-.231.245-.231h1.246V737.2a.242.242,0,0,1,.231-.258l.668-.1h.038a.183.183,0,0,1,.135.058.214.214,0,0,1,.058.161v1.4h1.387a.244.244,0,0,1,.18.077.245.245,0,0,1,.077.18v.436a.247.247,0,0,1-.077.181.246.246,0,0,1-.18.076h-1.387v4.472a.96.96,0,0,0,.154.666.794.794,0,0,0,.539.141h.72c.18,0,.27.061.27.184Z" transform="translate(501.148 -513.064)" fill="#000"/>
    <path d="M-349.781,744.292c0,.188-.082.283-.244.283h-4.29v.18a2.328,2.328,0,0,0,.449,1.617,1.754,1.754,0,0,0,1.336.476q.566,0,1.2-.038t1.084-.1h.065a.276.276,0,0,1,.141.037.155.155,0,0,1,.064.142v.437a.33.33,0,0,1-.052.2.3.3,0,0,1-.2.1c-.368.069-.735.123-1.1.16a11.457,11.457,0,0,1-1.2.058,3.958,3.958,0,0,1-1.078-.148,2.369,2.369,0,0,1-.932-.5,2.557,2.557,0,0,1-.655-.944,3.849,3.849,0,0,1-.25-1.49V743.6a3.158,3.158,0,0,1,.73-2.2,2.7,2.7,0,0,1,2.115-.809,3.283,3.283,0,0,1,1.231.212,2.331,2.331,0,0,1,.877.6,2.588,2.588,0,0,1,.532.95,4.046,4.046,0,0,1,.18,1.239Zm-1.131-.693a2.308,2.308,0,0,0-.417-1.554,1.62,1.62,0,0,0-1.266-.463,1.633,1.633,0,0,0-1.277.489,2.218,2.218,0,0,0-.443,1.529v.115h3.4Z" transform="translate(493.48 -515.29)" fill="#000"/>
    <path d="M-332.919,744.292c0,.188-.082.283-.244.283h-4.29v.18a2.326,2.326,0,0,0,.45,1.617,1.754,1.754,0,0,0,1.336.476q.566,0,1.2-.038t1.085-.1h.065a.278.278,0,0,1,.141.037.155.155,0,0,1,.064.142v.437a.333.333,0,0,1-.052.2.3.3,0,0,1-.2.1c-.368.069-.735.123-1.1.16a11.436,11.436,0,0,1-1.2.058,3.956,3.956,0,0,1-1.078-.148,2.366,2.366,0,0,1-.932-.5,2.548,2.548,0,0,1-.655-.944,3.84,3.84,0,0,1-.25-1.49V743.6a3.159,3.159,0,0,1,.73-2.2,2.7,2.7,0,0,1,2.115-.809,3.281,3.281,0,0,1,1.231.212,2.332,2.332,0,0,1,.877.6,2.589,2.589,0,0,1,.532.95,4.06,4.06,0,0,1,.18,1.239Zm-1.131-.693a2.3,2.3,0,0,0-.417-1.554,1.617,1.617,0,0,0-1.266-.463,1.636,1.636,0,0,0-1.278.489,2.223,2.223,0,0,0-.443,1.529v.115h3.4Z" transform="translate(483.484 -515.29)" fill="#000"/>
    <path d="M-641.142,705.055h-.462a.286.286,0,0,0-.2.077.267.267,0,0,0-.083.205v.693a.259.259,0,0,0,.083.187.273.273,0,0,0,.2.083h.462a.313.313,0,0,0,.218-.083.251.251,0,0,0,.09-.187v-.693a.258.258,0,0,0-.09-.205.33.33,0,0,0-.218-.077m21.7-8.579h.5a.3.3,0,0,0,.2-.077.242.242,0,0,0,.09-.192v-.694a.27.27,0,0,0-.084-.205.3.3,0,0,0-.211-.077h-.5a.3.3,0,0,0-.212.077.269.269,0,0,0-.083.205v.694a.251.251,0,0,0,.083.192.3.3,0,0,0,.212.077m-24.806.025h.5a.308.308,0,0,0,.206-.077.243.243,0,0,0,.09-.193v-.693a.258.258,0,0,0-.09-.206.307.307,0,0,0-.206-.077h-.5a.328.328,0,0,0-.212.077.251.251,0,0,0-.1.206v.693a.237.237,0,0,0,.1.193.329.329,0,0,0,.212.077m-2.107,0h.5a.308.308,0,0,0,.206-.077.246.246,0,0,0,.09-.193v-.693a.266.266,0,0,0-.084-.206.3.3,0,0,0-.212-.077h-.5a.3.3,0,0,0-.212.077.269.269,0,0,0-.083.206v.693a.252.252,0,0,0,.083.193.3.3,0,0,0,.212.077m29.019-.025h.5a.308.308,0,0,0,.206-.077.244.244,0,0,0,.09-.192v-.694a.261.261,0,0,0-.09-.205.306.306,0,0,0-.206-.077h-.5a.33.33,0,0,0-.212.077.253.253,0,0,0-.1.205v.694a.237.237,0,0,0,.1.192.332.332,0,0,0,.212.077m64.474.025h.5a.308.308,0,0,0,.206-.077.245.245,0,0,0,.09-.193v-.693a.267.267,0,0,0-.084-.206.3.3,0,0,0-.212-.077h-.5a.3.3,0,0,0-.212.077.267.267,0,0,0-.083.206v.693a.251.251,0,0,0,.083.193.3.3,0,0,0,.212.077m-86.493,7.231a.446.446,0,0,0,.212-.154.633.633,0,0,0,.084-.218,7.568,7.568,0,0,0,.045-.821q.007-.527.006-1.143v-1.2c0-.175,0-.362-.006-.559s-.011-.441-.02-.733a.247.247,0,0,0-.065-.173.229.229,0,0,0-.179-.071h-.616a.2.2,0,0,0-.161.071.268.268,0,0,0-.057.173q.012.5.019.925t.006.822v1.645q0,.333-.1.4a1.085,1.085,0,0,1-.476.064h-1.117a1.263,1.263,0,0,1-.655-.147c-.163-.1-.243-.32-.243-.662v-3.609a.336.336,0,0,0-.033-.161.221.221,0,0,0-.161-.083,3.121,3.121,0,0,0-.333-.071c-.129-.021-.264-.04-.4-.058s-.285-.03-.431-.039-.274-.012-.385-.012a5.264,5.264,0,0,0-1.342.16,2.93,2.93,0,0,0-1.053.5,2.263,2.263,0,0,0-.688.88,3.13,3.13,0,0,0-.243,1.3v.333a2.6,2.6,0,0,0,.642,1.9,2.455,2.455,0,0,0,1.837.655h.115a3.816,3.816,0,0,0,1-.123,1.216,1.216,0,0,0,.674-.4,1.166,1.166,0,0,0,.6.578,2.483,2.483,0,0,0,.97.167h.937c.146,0,.3,0,.462-.006s.321-.013.476-.026.29-.026.41-.039a1.16,1.16,0,0,0,.283-.058m-4.405-1.826a.547.547,0,0,1-.1.341.7.7,0,0,1-.27.213,1.242,1.242,0,0,1-.373.1,3.194,3.194,0,0,1-.4.026h-.245a1.43,1.43,0,0,1-1.181-.432,1.879,1.879,0,0,1-.346-1.205v-.27a2.02,2.02,0,0,1,.16-.858,1.373,1.373,0,0,1,.437-.541,1.677,1.677,0,0,1,.662-.277,4.3,4.3,0,0,1,.847-.078c.111,0,.231,0,.36.013s.278.022.449.039Zm97.445-4.9h.545a.3.3,0,0,0,.21-.077.255.255,0,0,0,.083-.193v-.693a.269.269,0,0,0-.083-.206.277.277,0,0,0-.2-.077h-.558a.3.3,0,0,0-.2.077.258.258,0,0,0-.088.206v.693a.252.252,0,0,0,.082.193.3.3,0,0,0,.21.077m-4.44-.5h.5a.308.308,0,0,0,.206-.077.244.244,0,0,0,.09-.193v-.693a.258.258,0,0,0-.09-.206.307.307,0,0,0-.206-.077h-.5a.331.331,0,0,0-.212.077.252.252,0,0,0-.1.206v.693a.239.239,0,0,0,.1.193.333.333,0,0,0,.212.077m-51.463,0h.5a.309.309,0,0,0,.206-.077.245.245,0,0,0,.09-.193v-.693a.269.269,0,0,0-.083-.206.3.3,0,0,0-.212-.077h-.5a.3.3,0,0,0-.212.077.271.271,0,0,0-.083.206v.693a.254.254,0,0,0,.083.193.3.3,0,0,0,.212.077m2.107,0h.5a.308.308,0,0,0,.206-.077.243.243,0,0,0,.09-.193v-.693a.258.258,0,0,0-.09-.206.307.307,0,0,0-.206-.077h-.5a.329.329,0,0,0-.212.077.251.251,0,0,0-.1.206v.693a.238.238,0,0,0,.1.193.33.33,0,0,0,.212.077m32.736-1.13a.228.228,0,0,0-.174.077.257.257,0,0,0-.071.18v5.728a.216.216,0,0,0,.245.244h.6c.155,0,.231-.081.231-.244v-5.728a.29.29,0,0,0-.057-.18.191.191,0,0,0-.16-.077Zm-.566-.962h1.735a.394.394,0,0,0,.16-.026c.038-.018.059-.06.059-.129v-.2c0-.1-.074-.154-.219-.154h-.861a.5.5,0,0,1-.193-.225.967.967,0,0,1-.09-.443q0-.578.681-.578c.043,0,.116,0,.218.007l.18.006c.111,0,.167-.047.167-.141v-.18c0-.069-.047-.12-.141-.155-.087-.017-.172-.029-.257-.038s-.163-.013-.232-.013a1.407,1.407,0,0,0-.893.25.953.953,0,0,0-.314.79,1.567,1.567,0,0,0,.051.392.884.884,0,0,0,.167.34h-.219c-.154,0-.231.043-.231.129v.217q0,.155.231.156m8.311-.206h-.63a.223.223,0,0,0-.173.077.255.255,0,0,0-.071.179V703.6a.256.256,0,0,0,.071.18.225.225,0,0,0,.173.077h.63a.205.205,0,0,0,.166-.077.269.269,0,0,0,.065-.18v-9.146a.269.269,0,0,0-.065-.179.2.2,0,0,0-.166-.077m-3.354,0h-.655a.206.206,0,0,0-.167.077.272.272,0,0,0-.064.179v7.836c0,.222-.037.355-.109.4a1.134,1.134,0,0,1-.482.064H-569.1c-.162,0-.244.077-.244.231v.655c0,.146.081.218.244.218h4.264q.244,0,.5-.006t.5-.026c.162-.013.308-.026.437-.039a1.2,1.2,0,0,0,.3-.058.4.4,0,0,0,.205-.154.707.707,0,0,0,.078-.218c.016-.179.03-.385.038-.616s.013-.523.013-.874v-7.411a.289.289,0,0,0-.058-.179.188.188,0,0,0-.161-.077m-76.127,10.853h-.462a.337.337,0,0,0-.213.077.249.249,0,0,0-.1.205v.693a.243.243,0,0,0,.1.187.32.32,0,0,0,.213.083h.462a.291.291,0,0,0,.213-.083.26.26,0,0,0,.083-.187v-.693a.268.268,0,0,0-.083-.205.306.306,0,0,0-.213-.077m99.171,0h-.547a.306.306,0,0,0-.2.077.258.258,0,0,0-.089.205v.693a.251.251,0,0,0,.089.187.291.291,0,0,0,.2.083h.547a.289.289,0,0,0,.2-.083.252.252,0,0,0,.089-.187v-.693a.259.259,0,0,0-.089-.205.3.3,0,0,0-.2-.077m13.559-10.775a.206.206,0,0,0-.167-.077h-.629a.225.225,0,0,0-.174.077.255.255,0,0,0-.07.179V703.6a.256.256,0,0,0,.07.18.228.228,0,0,0,.174.077h.629a.207.207,0,0,0,.167-.077.272.272,0,0,0,.064-.18v-9.146a.272.272,0,0,0-.064-.179m-3.455-.064h-.63a.236.236,0,0,0-.173.07.233.233,0,0,0-.07.173v7.836c0,.222-.033.355-.1.4a1.037,1.037,0,0,1-.469.064h-1.131c-.077,0-.166,0-.269-.012a2.453,2.453,0,0,1-.3-.045,1.267,1.267,0,0,1-.27-.09.3.3,0,0,1-.16-.16v-7.99a.25.25,0,0,0-.064-.173.219.219,0,0,0-.168-.07h-.629a.235.235,0,0,0-.173.07.234.234,0,0,0-.071.173v7.823a.356.356,0,0,1-.1.263.572.572,0,0,1-.238.141,1.363,1.363,0,0,1-.3.058c-.1.009-.2.012-.283.012h-.693a.277.277,0,0,1-.141-.025.44.44,0,0,1-.1-.128l-.514-1.294-.141-.332a6.986,6.986,0,0,0-.8-1.467,3.629,3.629,0,0,0-.925-.9,3.156,3.156,0,0,0-1.066-.449,5.748,5.748,0,0,0-1.208-.121c-.2,0-.4.009-.623.025a4.049,4.049,0,0,0-.6.089.332.332,0,0,0-.193.083.231.231,0,0,0-.052.158v.521q0,.2.283.177c.145-.016.318-.032.514-.044s.33-.02.4-.02a3.357,3.357,0,0,1,1.908.475,3.264,3.264,0,0,1,1.124,1.465l.3.681.462,1.1H-544.5c-.077,0-.167,0-.269-.012a2.437,2.437,0,0,1-.3-.045,1.278,1.278,0,0,1-.27-.09.3.3,0,0,1-.161-.16v-3.532a.238.238,0,0,0-.07-.174.239.239,0,0,0-.173-.07h-.59a.239.239,0,0,0-.175.07.241.241,0,0,0-.07.174v3.365a.355.355,0,0,1-.1.263.575.575,0,0,1-.238.141,1.357,1.357,0,0,1-.295.058c-.1.009-.2.012-.283.012h-.8a1.261,1.261,0,0,1-.655-.147c-.163-.1-.244-.32-.244-.662v-3.609a.328.328,0,0,0-.033-.161.222.222,0,0,0-.16-.083,3.137,3.137,0,0,0-.333-.071c-.129-.021-.264-.04-.405-.058s-.284-.03-.43-.039-.274-.012-.386-.012a5.258,5.258,0,0,0-1.341.16,2.938,2.938,0,0,0-1.053.5,2.265,2.265,0,0,0-.687.88,3.122,3.122,0,0,0-.244,1.3v.333a2.6,2.6,0,0,0,.642,1.9,2.456,2.456,0,0,0,1.837.655h.115a3.824,3.824,0,0,0,1-.123,1.21,1.21,0,0,0,.673-.4,1.168,1.168,0,0,0,.6.578,2.481,2.481,0,0,0,.969.167h.784a4.419,4.419,0,0,0,.8-.083,1.708,1.708,0,0,0,.764-.341,1.535,1.535,0,0,0,.751.341,4.8,4.8,0,0,0,.854.083h8.936a4.414,4.414,0,0,0,.8-.083,1.7,1.7,0,0,0,.765-.341,1.141,1.141,0,0,0,.341.212,2.253,2.253,0,0,0,.41.129,3.669,3.669,0,0,0,.431.064c.145.013.283.019.411.019h.758q.218,0,.47-.006c.166,0,.327-.013.48-.026s.3-.026.425-.039a1.2,1.2,0,0,0,.295-.058.412.412,0,0,0,.207-.154.755.755,0,0,0,.076-.218c.018-.1.03-.218.039-.347s.015-.26.02-.4.007-.27.007-.4v-7.759a.248.248,0,0,0-.065-.173.217.217,0,0,0-.167-.07m-20.431,7.691a.548.548,0,0,1-.1.341.708.708,0,0,1-.269.213,1.245,1.245,0,0,1-.373.1,3.191,3.191,0,0,1-.4.026h-.244a1.43,1.43,0,0,1-1.182-.432,1.875,1.875,0,0,1-.346-1.205v-.27a2.009,2.009,0,0,1,.161-.858,1.374,1.374,0,0,1,.436-.541,1.683,1.683,0,0,1,.662-.277,4.3,4.3,0,0,1,.847-.078c.111,0,.231,0,.359.013s.277.022.45.039Zm-20.9-3.774a4.1,4.1,0,0,0-.816-.147c-.32-.03-.652-.045-.994-.045a3.089,3.089,0,0,0-2.261.783,2.856,2.856,0,0,0-.8,2.133v.322a2.675,2.675,0,0,0,.694,2.016,2.568,2.568,0,0,0,1.862.668c.1,0,.223,0,.36-.006a3.363,3.363,0,0,0,.417-.039,3.559,3.559,0,0,0,.386-.077.649.649,0,0,0,.263-.121v.762a1.561,1.561,0,0,1-.16.756,1.134,1.134,0,0,1-.45.451,2.009,2.009,0,0,1-.7.221,6.637,6.637,0,0,1-.924.057c-.137,0-.317,0-.539-.006s-.408-.006-.553-.006-.206.059-.206.178v.557a.2.2,0,0,0,.039.134.3.3,0,0,0,.167.07c.043.007.12.016.232.025s.233.014.366.019l.4.012c.132,0,.241.007.327.007a5.944,5.944,0,0,0,1.246-.122,2.538,2.538,0,0,0,.976-.425,2,2,0,0,0,.642-.815,3.209,3.209,0,0,0,.231-1.31v-5.818a.224.224,0,0,0-.038-.147.374.374,0,0,0-.167-.083m-.873,4.226c0,.2-.12.317-.36.359a4.861,4.861,0,0,1-.86.065,1.743,1.743,0,0,1-1.311-.411,1.9,1.9,0,0,1-.385-1.323v-.257a1.8,1.8,0,0,1,.495-1.361,1.853,1.853,0,0,1,1.343-.476q.334,0,.578.014c.162.007.33.021.5.037ZM-608.99,694.2h-.63a.224.224,0,0,0-.173.077.255.255,0,0,0-.07.179V703.6a.255.255,0,0,0,.07.18.226.226,0,0,0,.173.077h.63a.208.208,0,0,0,.167-.077.273.273,0,0,0,.064-.18v-9.146a.272.272,0,0,0-.064-.179.206.206,0,0,0-.167-.077m30.874.013h-.629a.236.236,0,0,0-.173.07.234.234,0,0,0-.07.173v7.836q0,.333-.1.4a1.033,1.033,0,0,1-.468.064H-582.1a1.636,1.636,0,0,1-.256-.025,1.233,1.233,0,0,1-.3-.09.82.82,0,0,1-.263-.179.447.447,0,0,1-.129-.3,2.186,2.186,0,0,0,.033-.321c0-.119.007-.232.007-.334v-.72a2.87,2.87,0,0,0-.655-2.041,2.543,2.543,0,0,0-1.939-.694,2.628,2.628,0,0,0-1.972.706,2.791,2.791,0,0,0-.688,2.029v1.234a1.576,1.576,0,0,1-.038.372.3.3,0,0,1-.135.2.886.886,0,0,1-.25.109,1.269,1.269,0,0,1-.289.045q-.148.006-.238.006h-.514c-.077,0-.167,0-.27-.012a2.46,2.46,0,0,1-.3-.045,1.3,1.3,0,0,1-.27-.09.3.3,0,0,1-.16-.16v-3.532a.239.239,0,0,0-.07-.174.236.236,0,0,0-.173-.07h-.591a.239.239,0,0,0-.174.07.239.239,0,0,0-.071.174v3.365a.4.4,0,0,1-.109.263.571.571,0,0,1-.237.141,1.372,1.372,0,0,1-.3.058c-.1.009-.2.012-.283.012h-1.131c-.076,0-.166,0-.269-.012a2.429,2.429,0,0,1-.3-.045,1.266,1.266,0,0,1-.27-.09.3.3,0,0,1-.16-.16v-3.532a.24.24,0,0,0-.07-.174.239.239,0,0,0-.173-.07h-.591a.237.237,0,0,0-.174.07.238.238,0,0,0-.071.174v3.365a.351.351,0,0,1-.1.263.569.569,0,0,1-.237.141,1.377,1.377,0,0,1-.3.058c-.1.009-.2.012-.282.012h-.8a1.264,1.264,0,0,1-.655-.147c-.162-.1-.243-.32-.243-.662v-3.609a.331.331,0,0,0-.034-.161.221.221,0,0,0-.16-.083,3.12,3.12,0,0,0-.334-.071c-.128-.021-.263-.04-.4-.058s-.284-.03-.431-.039-.274-.012-.385-.012a5.277,5.277,0,0,0-1.343.16,2.941,2.941,0,0,0-1.052.5,2.268,2.268,0,0,0-.687.88,3.13,3.13,0,0,0-.244,1.3v.333a2.6,2.6,0,0,0,.643,1.9,2.453,2.453,0,0,0,1.836.655h.115a3.812,3.812,0,0,0,1-.123,1.217,1.217,0,0,0,.675-.4,1.164,1.164,0,0,0,.6.578,2.48,2.48,0,0,0,.969.167h.784a4.439,4.439,0,0,0,.8-.083,1.706,1.706,0,0,0,.763-.341,1.537,1.537,0,0,0,.751.341,4.807,4.807,0,0,0,.854.083h.963a4.419,4.419,0,0,0,.8-.083,1.7,1.7,0,0,0,.764-.341,1.539,1.539,0,0,0,.751.341,4.813,4.813,0,0,0,.854.083h.386a3.9,3.9,0,0,0,.886-.1,1.225,1.225,0,0,0,.667-.392,1.741,1.741,0,0,0,.855.648,3.579,3.579,0,0,0,1.277.212,2.319,2.319,0,0,0,2.056-.874,1.437,1.437,0,0,0,.648.379,2.842,2.842,0,0,0,.828.122h2.195c.146,0,.3,0,.469-.006s.328-.013.481-.026.3-.026.424-.039a1.205,1.205,0,0,0,.3-.058.412.412,0,0,0,.206-.154.739.739,0,0,0,.076-.218c.017-.1.029-.218.038-.347s.015-.26.02-.4.006-.27.006-.4v-7.759a.249.249,0,0,0-.065-.173.217.217,0,0,0-.167-.07m-21.512,7.691a.542.542,0,0,1-.1.341.7.7,0,0,1-.27.213,1.244,1.244,0,0,1-.373.1,3.179,3.179,0,0,1-.4.026h-.245a1.431,1.431,0,0,1-1.181-.432,1.879,1.879,0,0,1-.346-1.205v-.27a2.03,2.03,0,0,1,.16-.858,1.377,1.377,0,0,1,.437-.541,1.676,1.676,0,0,1,.662-.277,4.3,4.3,0,0,1,.847-.078c.111,0,.231,0,.359.013s.278.022.449.039Zm15.541-.434a2.07,2.07,0,0,1-.346,1.316,1.45,1.45,0,0,1-1.195.43,1.843,1.843,0,0,1-1-.244,1.164,1.164,0,0,1-.5-.784,4.334,4.334,0,0,1-.052-.719v-.591a2.135,2.135,0,0,1,.366-1.349,1.458,1.458,0,0,1,1.214-.462,1.36,1.36,0,0,1,1.175.468,2.269,2.269,0,0,1,.339,1.343Zm-28.192-7.257h-.629a.236.236,0,0,0-.173.07.234.234,0,0,0-.07.173v7.836c0,.222-.033.355-.1.4a1.036,1.036,0,0,1-.469.064h-2.054v-4.443a.257.257,0,0,0-.039-.155.282.282,0,0,0-.167-.078,4.728,4.728,0,0,0-.867-.147q-.508-.045-1.034-.045a3.13,3.13,0,0,0-2.19.719,2.6,2.6,0,0,0-.789,2.029v.308a2.944,2.944,0,0,0,.179,1.092,1.712,1.712,0,0,0,.514.719h-2.672a1.4,1.4,0,0,0,.064-.262c.017-.107.029-.22.038-.339s.015-.241.019-.365.006-.232.006-.326v-.2a4.374,4.374,0,0,0-.231-1.518,2.55,2.55,0,0,0-.668-1.018,2.6,2.6,0,0,0-1.078-.576,5.424,5.424,0,0,0-1.464-.18c-.146,0-.332.009-.559.026a6.4,6.4,0,0,0-.739.1,5.368,5.368,0,0,0-.8.221,2.986,2.986,0,0,0-.738.388v-4.242a.238.238,0,0,0-.07-.174.239.239,0,0,0-.173-.07h-.63a.216.216,0,0,0-.167.07.247.247,0,0,0-.064.173v8.3h-5.219v-3.839a.252.252,0,0,0-.065-.174.216.216,0,0,0-.167-.07h-.616a.215.215,0,0,0-.167.07.247.247,0,0,0-.064.174v6.024a1.49,1.49,0,0,1-.07.507.556.556,0,0,1-.206.275.778.778,0,0,1-.347.116,4.229,4.229,0,0,1-.495.025h-.14c-.155,0-.232.065-.232.194v.552c0,.12.074.193.219.218.077.009.15.016.218.02s.125.007.168.007a3.2,3.2,0,0,0,1.04-.148,1.255,1.255,0,0,0,.68-.6,1.431,1.431,0,0,0,.18-.553,5.75,5.75,0,0,0,.039-.72v-.976h21.274q.218,0,.47-.006t.481-.026c.155-.013.3-.026.425-.039a1.2,1.2,0,0,0,.295-.058.409.409,0,0,0,.206-.154.73.73,0,0,0,.077-.218c.018-.1.03-.218.039-.347s.015-.26.02-.4.007-.27.007-.4v-7.759a.25.25,0,0,0-.065-.173.218.218,0,0,0-.168-.07m-11.507,7.449a3.234,3.234,0,0,1-.077.892.27.27,0,0,1-.257.212h-4.219q-.328,0-.649-.013v-3.069a2.308,2.308,0,0,1,.642-.333,6,6,0,0,1,.745-.205,5.35,5.35,0,0,1,.719-.1c.231-.017.419-.026.565-.026a4.914,4.914,0,0,1,1.1.11,1.743,1.743,0,0,1,.79.391,1.754,1.754,0,0,1,.476.751,3.711,3.711,0,0,1,.16,1.175Zm6.936,1.117h-1.258a1.575,1.575,0,0,1-1.266-.475,2.047,2.047,0,0,1-.4-1.362v-.269a1.763,1.763,0,0,1,.463-1.33,1.879,1.879,0,0,1,1.349-.443c.222,0,.421,0,.6.013a4.924,4.924,0,0,1,.52.052Zm20.46,2.273h-.5a.3.3,0,0,0-.212.077.267.267,0,0,0-.083.205v.693a.259.259,0,0,0,.083.187.289.289,0,0,0,.212.083h.5a.3.3,0,0,0,.206-.083.252.252,0,0,0,.09-.187v-.693a.264.264,0,0,0-.084-.205.3.3,0,0,0-.211-.077m2.106,0h-.5a.334.334,0,0,0-.212.077.248.248,0,0,0-.1.205v.693a.243.243,0,0,0,.1.187.316.316,0,0,0,.212.083h.5a.294.294,0,0,0,.205-.083.251.251,0,0,0,.09-.187v-.693a.257.257,0,0,0-.09-.205.309.309,0,0,0-.205-.077m3.211,0h-.552a.312.312,0,0,0-.207.077.259.259,0,0,0-.089.205v.693a.252.252,0,0,0,.089.187.3.3,0,0,0,.207.083h.552a.293.293,0,0,0,.205-.083.247.247,0,0,0,.089-.187v-.693a.254.254,0,0,0-.089-.205.309.309,0,0,0-.205-.077" transform="translate(666.765 -486.563)" fill="#000"/>
    <g transform="translate(29.009 2.502)">
      <g transform="translate(0)" clip-path="url(#clip-path)">
        <rect width="11.369" height="101.502" transform="translate(-0.133 10.019) rotate(-89.238)" fill="url(#linear-gradient)"/>
      </g>
    </g>
    <path d="M-527.1,280.417l-5.673-14.853h-.1l-5.677,14.853-5.626-14.73-5.631,14.73-5.673-14.853-5.678,14.853-5.678-14.853-5.673,14.853-5.678-14.853-5.678,14.853-5.677-14.853-5.678,14.853-5.673-14.853-3.287,8.6-2.387,6.249-5.661-14.81-.014-.038-5.68,14.848-5.273-13.8V307.1a78.679,78.679,0,0,0,47.01,72.031c1.017.448,1.239.544,2.275.959a4.184,4.184,0,0,0,1.4.32,4.32,4.32,0,0,0,1.4-.32c1.033-.419,1.258-.511,2.275-.959A78.679,78.679,0,0,0-521.82,307.1s0-22.151,0-40.484Z" transform="translate(652.206 -233.689)" fill="#8c0034"/>
    <path d="M-612.24,223.846l5.661,14.956,5.674-14.956,5.673,14.956,5.678-14.956,5.677,14.956,5.678-14.956,5.678,14.956,5.673-14.956,5.678,14.956,5.678-14.956,5.673,14.956,5.631-14.956,5.626,14.956,5.677-14.956,5.775,14.956,5.281-14.956V202.228c-17.016-5.628-33.758-8.783-50.689-8.805-16.93.022-33.673,3.177-50.689,8.805v21.617l5.273,14.956Z" transform="translate(652.212 -190.923)" fill="#fff"/>
    <g transform="translate(24.011 4.563)">
      <g clip-path="url(#clip-path-2)">
        <rect width="137.062" height="113.301" transform="translate(-1.938 135.454) rotate(-89.18)" fill="url(#linear-gradient-2)"/>
      </g>
    </g>
    <path d="M-579.484,348.577c-2.826,0-6.342,1.616-6.342,5.369v5.605c0,3.144,2.467,4.783,4.93,5.234l1.949,2.016h0l1.14,1.163c.309.309.688.261,1.069-.118l1.14-.927c.4-.4.4-.807.1-1.092l-.9-1.021.006-.007-1.981-2.222-.891-1a1.739,1.739,0,0,1-.191.015,2.362,2.362,0,0,1-2.637-2.4v-4.94a2.363,2.363,0,0,1,2.637-2.4,2.37,2.37,0,0,1,2.66,2.4l.008,5.14a2.337,2.337,0,0,1-.453,1.444.373.373,0,0,0,.031.466l1.854,2.144a.386.386,0,0,0,.537.051,4.784,4.784,0,0,0,1.424-2.008l.013-.03c.012-.035.024-.071.035-.107a4.008,4.008,0,0,0,.119-.418c.006-.024.012-.047.016-.071.032-.149.059-.3.077-.465.011-.091.016-.185.022-.278s.011-.167.014-.254c0-.048.008-.092.008-.141v-5.781c0-3.753-3.563-5.369-6.389-5.369m51.036-25.3a1.666,1.666,0,0,0,1.686-1.664,1.639,1.639,0,0,0-1.686-1.664,1.647,1.647,0,0,0-1.665,1.664,1.676,1.676,0,0,0,1.665,1.664m-5.083,0a1.667,1.667,0,0,0,1.687-1.664,1.64,1.64,0,0,0-1.687-1.664,1.629,1.629,0,0,0-1.642,1.664,1.657,1.657,0,0,0,1.642,1.664M-514.9,363.8l-3.349-4.869a5.115,5.115,0,0,0,3.3-4.727,5.176,5.176,0,0,0-1.378-3.729c-1-1-2.138-1.52-4.727-1.52h-5.986c-.546,0-.665.261-.665.689v14.227c0,.547.237.689.665.689h2.351c.428,0,.689-.143.689-.689v-11.59h3.16a2.017,2.017,0,0,1,2.185,2.019,2.125,2.125,0,0,1-2.256,1.924h-.475c-.546,0-.688.261-.688.689v1.9a2.305,2.305,0,0,0,.363,1.365l2.344,3.492.119.178a1.265,1.265,0,0,0,1.188.713h2.8c.451,0,.57-.428.357-.761m-51.735-24.423v-.555a8.008,8.008,0,0,0,2.66.465h19.789a4.689,4.689,0,0,0,2.276-.623v.622l10.465,0a6.694,6.694,0,0,0,5.711-2.826,3.814,3.814,0,0,0,.627-1.811c.015-.107.051-.616.051-.616l-.01-3.821c0-3.753-3.563-5.368-6.389-5.368-2.781,0-6.221,1.568-6.331,5.193v1.9a.576.576,0,0,0,.132.424l1.328,1.426,1.224,1.325s.138.15.138.15c.208.208.606.165.969-.148l1.01-1.067c.406-.35.483-.726.2-1.057l-1.281-1.432v-1.04a2.362,2.362,0,0,1,2.636-2.4,2.37,2.37,0,0,1,2.66,2.4v3.064a2.381,2.381,0,0,1-2.673,2.4l-8.854,0c0-.06.019-.119.019-.179a1.524,1.524,0,0,0-.111-.489s-2.84-7.507-3.018-7.966a1.846,1.846,0,0,0-1.686-.887h-4.727a9.315,9.315,0,0,0-5.1,1.513v-4.538c0-.538-.254-.683-.67-.688h-2.351c-.428,0-.689.143-.689.689v12.547l-5.339,0a2.37,2.37,0,0,1-2.66-2.4V328.21c0-.547-.261-.689-.689-.689h-2.351c-.428,0-.689.142-.689.689v10.409a2.354,2.354,0,0,1-2.66,2.375h-1.946c-.546,0-.688.261-.688.689v2.352c0,.427.142.689.688.689h1.946c2.826,0,6.389-1.614,6.389-5.344m11.709-5.284a5.067,5.067,0,0,1,1.4-3.306,5.348,5.348,0,0,1,3.84-1.62h3.239l2.574,6.79-11.051.024Zm19.859,15.574c-.213-.5-.451-.736-.974-.736h-2.28a.941.941,0,0,0-.974.736l-5.273,14.227c-.119.285-.119.665.4.665h2.493c.523,0,.713-.143.9-.713l.665-1.876h5.819l.665,1.876c.189.57.379.713.9.713h2.494c.522,0,.522-.38.4-.665Zm-3.9,8.978,1.782-5.249,1.782,5.249Zm-5.345-7.055v-1.972c0-.427-.142-.688-.689-.688h-11.02c-.546,0-.689.261-.689.688v1.972c0,.428.143.689.689.689h3.657v11.59c0,.547.261.689.688.689h2.352c.428,0,.689-.143.689-.689v-11.59h3.634c.547,0,.689-.262.689-.689m-17.555-1.924c-.214-.5-.45-.736-.974-.736h-2.279a.942.942,0,0,0-.974.736L-571.36,363.9c-.119.285-.119.665.4.665h2.493c.523,0,.713-.143.9-.713l.665-1.876h5.82l.665,1.876c.19.57.379.713.9.713h2.494c.523,0,.523-.38.4-.665Zm-3.895,8.978,1.781-5.249,1.782,5.249Z" transform="translate(630.052 -265.929)" fill="#fff"/>
    <path d="M-470.292,605.629a9.178,9.178,0,0,1,.937.048,9.244,9.244,0,0,1,1.944.41,9.317,9.317,0,0,1,6.315,7.453,9.243,9.243,0,0,0,1.943.412,11.2,11.2,0,0,0-8.349-9.841,10.965,10.965,0,0,0-1.864-.312c-.307-.024-.618-.042-.926-.042-.344,0-.679.02-1.011.052.027.3.041.6.041.9,0,.327-.017.65-.049.973a8.934,8.934,0,0,1,1.02-.057" transform="translate(562.167 -434.172)" fill="#00a651"/>
    <path d="M-455.38,578.556a11.192,11.192,0,0,0-11.153,10.3,11.076,11.076,0,0,1,1.864.311,9.308,9.308,0,0,1,9.289-8.744,9.314,9.314,0,0,1,9.318,9.317,9.317,9.317,0,0,1-9.318,9.315c-.318,0-.632-.018-.94-.047a9.149,9.149,0,0,1-1.943-.413,9.313,9.313,0,0,1-6.315-7.452,9.336,9.336,0,0,0-1.944-.412,11.2,11.2,0,0,0,8.347,9.844,11.684,11.684,0,0,0,1.861.309c.309.025.62.039.933.039a11.188,11.188,0,0,0,11.19-11.184,11.188,11.188,0,0,0-11.19-11.189" transform="translate(559.334 -419.233)" fill="#ee334e"/>
    <path d="M-503.756,588.909a11.187,11.187,0,0,0-11.15-10.282,11.187,11.187,0,0,0-11.151,10.31,11.205,11.205,0,0,1,1.861.309,9.309,9.309,0,0,1,9.29-8.747,9.306,9.306,0,0,1,9.288,8.735c.016.191.031.384.031.582a9.273,9.273,0,0,1-.118,1.4,9.317,9.317,0,0,1-6.243,7.43,8.81,8.81,0,0,0-.117,1.4c0,.2.018.386.026.578a11.182,11.182,0,0,0,8.275-9.841,9.682,9.682,0,0,0,.05-.973c0-.307-.014-.606-.041-.906" transform="translate(594.62 -419.275)" fill="#000"/>
    <path d="M-475.816,616.063a9.309,9.309,0,0,1-9.284,8.745,9.314,9.314,0,0,1-9.292-8.738c-.011-.193-.029-.386-.029-.579a8.78,8.78,0,0,1,.117-1.4,9.315,9.315,0,0,1,6.243-7.43,9.285,9.285,0,0,0,.118-1.4c0-.2-.015-.391-.031-.581a11.194,11.194,0,0,0-8.274,9.839c-.028.323-.045.646-.045.979,0,.3.017.605.041.905a11.183,11.183,0,0,0,11.151,10.28,11.187,11.187,0,0,0,11.145-10.3,11.8,11.8,0,0,1-1.861-.31" transform="translate(576.976 -434.716)" fill="#00a651"/>
  </g>
</svg>
